#!OML:ASF E:\Steps\Project 1\Capture day 1\Session 2\Subject.ASF
:FULLY-SPECIFIED
:DEGREES
337
root 11.7991 17.0942 10.642 -147.479 3.09575 170.989
lowerback -8.33773 -1.10978 -1.06052
upperback 3.00607 -1.34242 -0.0378419
thorax 7.8789 -0.699828 0.355744
lowerneck -4.89649 -3.82634 -0.23021
upperneck 15.1848 -4.44847 -1.09783
head 5.35455 -2.04468 -0.55177
rclavicle -8.74653e-015 7.95139e-016
rhumerus -22.382 18.1565 -71.9233
rradius 59.8934
rwrist -16.3727
rhand -2.20403 -57.0277
rfingers 7.12502
rthumb 23.4777 -445.615
lclavicle -8.74653e-015 7.95139e-016
lhumerus -31.0132 -20.9349 63.8777
lradius 47.521
lwrist 2.93363
lhand -17.8007 -11.7785
lfingers 7.12502
lthumb 8.46263 18.0319
rfemur -49.247 -2.14937 13.7765
rtibia 27.9693
rfoot -24.5121 -4.27446
rtoes -15.4034
lfemur -51.2286 -14.8988 -20.8002
ltibia 45.6624
lfoot -16.149 2.3075
ltoes -39.543
338
root 11.8224 17.111 10.605 -147.787 2.97652 171.372
lowerback -8.61644 -1.06817 -1.11361
upperback 3.00284 -1.28419 0.0288145
thorax 8.0392 -0.677014 0.459466
lowerneck -5.09985 -3.98682 -0.461298
upperneck 15.3807 -4.68161 -0.802678
head 5.46282 -2.15029 -0.443345
rclavicle 2.38542e-015 9.54166e-015
rhumerus -22.5681 18.065 -72.2446
rradius 59.7004
rwrist -16.2209
rhand -1.8317 -57.1887
rfingers 7.12502
rthumb 23.8348 -445.73
lclavicle 2.38542e-015 9.54166e-015
lhumerus -31.3587 -20.222 64.0732
lradius 47.2578
lwrist 2.92937
lhand -17.3772 -11.5936
lfingers 7.12502
lthumb 8.87132 18.2
rfemur -48.3596 -1.95737 14.3093
rtibia 27.2616
rfoot -24.4835 -3.94366
rtoes -15.032
lfemur -51.2337 -15.466 -20.6651
ltibia 44.4749
lfoot -16.3276 1.63181
ltoes -39.3675
339
root 11.8441 17.126 10.5631 -148.162 2.85691 171.75
lowerback -8.94943 -1.17411 -1.30985
upperback 2.74889 -1.42387 0.256265
thorax 7.97333 -0.762926 0.784288
lowerneck -4.39567 -3.79446 -1.08415
upperneck 15.7032 -4.30324 -0.704999
head 5.46123 -1.96699 -0.275718
rclavicle -1.51076e-014 -4.92986e-014
rhumerus -23.3204 18.5822 -72.638
rradius 59.6257
rwrist -16.2702
rhand -1.85545 -57.0154
rfingers 7.12502
rthumb 23.812 -445.56
lclavicle -1.51076e-014 -4.92986e-014
lhumerus -32.5581 -19.1792 64.6366
lradius 46.9243
lwrist 2.75328
lhand -17.19 -11.7159
lfingers 7.12502
lthumb 9.05204 18.0699
rfemur -47.3925 -1.73132 14.8125
rtibia 26.5893
rfoot -24.4562 -3.67473
rtoes -14.4069
lfemur -51.0447 -15.9772 -20.5524
ltibia 43.2908
lfoot -16.6361 0.884667
ltoes -38.0616
340
root 11.867 17.1404 10.5267 -148.408 2.76794 172.116
lowerback -9.23951 -1.01911 -1.34634
upperback 2.73614 -1.20541 0.207369
thorax 8.12173 -0.657714 0.783161
lowerneck -4.46822 -3.80705 -0.784332
upperneck 15.6506 -4.33732 -0.843483
head 5.44653 -1.97809 -0.370677
rclavicle -3.97569e-015 -5.56597e-015
rhumerus -23.6027 17.9451 -73.0813
rradius 59.3822
rwrist -16.1234
rhand -1.99122 -56.3537
rfingers 7.12502
rthumb 23.6818 -444.915
lclavicle -3.97569e-015 -5.56597e-015
lhumerus -32.4548 -18.7171 64.6653
lradius 46.2423
lwrist 2.47536
lhand -17.4791 -12.3451
lfingers 7.12502
lthumb 8.77299 17.4526
rfemur -46.6137 -1.35975 15.2294
rtibia 25.9922
rfoot -24.2468 -3.60797
rtoes -14.4208
lfemur -51.0702 -16.3175 -20.4504
ltibia 42.3447
lfoot -16.7763 0.10972
ltoes -36.5875
341
root 11.8919 17.1536 10.4925 -148.542 2.5888 172.446
lowerback -9.73544 -0.990708 -1.4808
upperback 2.69695 -1.14834 0.248037
thorax 8.36977 -0.63949 0.903972
lowerneck -4.18937 -3.80904 -0.692629
upperneck 15.1876 -4.37162 -0.893578
head 5.25159 -2.00258 -0.393378
rclavicle -1.07344e-014 -1.82882e-014
rhumerus -23.7469 17.6478 -73.4474
rradius 59.0475
rwrist -15.8575
rhand -2.22333 -55.3554
rfingers 7.12502
rthumb 23.4592 -443.945
lclavicle -1.07344e-014 -1.82882e-014
lhumerus -32.5559 -17.9533 64.6904
lradius 45.7425
lwrist 2.07616
lhand -17.4633 -12.1088
lfingers 7.12502
lthumb 8.78824 17.6882
rfemur -45.9389 -1.1122 15.6702
rtibia 25.3987
rfoot -23.9526 -3.59751
rtoes -14.9724
lfemur -51.2591 -16.6971 -20.2977
ltibia 41.5003
lfoot -16.6988 -0.446244
ltoes -35.8458
342
root 11.9189 17.1667 10.4584 -148.74 2.40542 172.749
lowerback -10.0182 -0.966042 -1.69996
upperback 2.60872 -1.08718 0.288566
thorax 8.44244 -0.622615 1.07751
lowerneck -4.1474 -4.01227 -0.806181
upperneck 14.9816 -4.70117 -0.589849
head 5.19098 -2.15828 -0.297386
rclavicle -4.37326e-015 -2.8625e-014
rhumerus -23.9803 17.3369 -73.8493
rradius 58.784
rwrist -15.7586
rhand -2.47869 -54.7641
rfingers 7.12502
rthumb 23.2142 -443.385
lclavicle -4.37326e-015 -2.8625e-014
lhumerus -32.8608 -17.29 64.7296
lradius 45.4131
lwrist 1.7165
lhand -17.0102 -11.5251
lfingers 7.12502
lthumb 9.22555 18.253
rfemur -45.1953 -0.929351 16.0999
rtibia 24.7754
rfoot -23.982 -3.45109
rtoes -14.1708
lfemur -51.2975 -17.0634 -20.1406
ltibia 40.615
lfoot -16.7818 -0.799232
ltoes -36.354
343
root 11.9462 17.1762 10.4215 -148.994 2.3371 173.084
lowerback -10.0994 -0.752931 -1.86884
upperback 2.54018 -0.772211 0.204746
thorax 8.40615 -0.475179 1.1377
lowerneck -4.63957 -3.9614 -0.401345
upperneck 15.5164 -4.63425 -0.683464
head 5.42784 -2.0986 -0.403794
rclavicle 0 3.26007e-014
rhumerus -24.3362 16.5799 -74.3016
rradius 58.6346
rwrist -15.8135
rhand -2.43401 -55.1319
rfingers 7.12502
rthumb 23.2571 -443.747
lclavicle 0 3.26007e-014
lhumerus -32.8035 -17.0588 64.6795
lradius 44.9962
lwrist 1.43548
lhand -16.6946 -11.3696
lfingers 7.12502
lthumb 9.52998 18.3949
rfemur -44.445 -0.69405 16.5565
rtibia 24.2087
rfoot -24.121 -3.20096
rtoes -12.8541
lfemur -51.2396 -17.1826 -20.0675
ltibia 39.871
lfoot -17.023 -1.10405
ltoes -37.8185
344
root 11.9713 17.1841 10.3777 -149.287 2.25916 173.469
lowerback -10.4523 -0.809053 -2.09497
upperback 2.30974 -0.826518 0.370583
thorax 8.3703 -0.516327 1.42975
lowerneck -3.89832 -3.95381 -0.890399
upperneck 15.3972 -4.58179 -0.457644
head 5.2827 -2.07434 -0.233769
rclavicle 2.0276e-014 2.14687e-014
rhumerus -24.976 16.8768 -74.7323
rradius 58.5448
rwrist -15.7718
rhand -2.15072 -56.2905
rfingers 7.12502
rthumb 23.5288 -444.871
lclavicle 2.0276e-014 2.14687e-014
lhumerus -33.6069 -16.0674 64.9379
lradius 44.5662
lwrist 1.05092
lhand -16.8007 -11.372
lfingers 7.12502
lthumb 9.42763 18.3972
rfemur -43.5759 -0.392293 17.0629
rtibia 23.5569
rfoot -23.757 -3.12195
rtoes -13.6138
lfemur -50.9766 -17.114 -20.0945
ltibia 39.0748
lfoot -16.9035 -1.21473
ltoes -39.5181
345
root 11.9959 17.1925 10.334 -149.633 2.20071 173.852
lowerback -10.7642 -0.601662 -2.11334
upperback 2.43912 -0.526757 0.236349
thorax 8.67714 -0.371643 1.34831
lowerneck -4.36754 -4.11849 -0.490189
upperneck 15.3604 -4.87757 -0.43458
head 5.34158 -2.20648 -0.319171
rclavicle 4.37326e-015 1.27222e-014
rhumerus -24.758 15.8289 -75.2286
rradius 57.839
rwrist -15.3843
rhand -1.97102 -56.8276
rfingers 7.12502
rthumb 23.7012 -445.386
lclavicle 4.37326e-015 1.27222e-014
lhumerus -33.2143 -15.8572 64.737
lradius 43.9962
lwrist 1.06363
lhand -17.2385 -11.6345
lfingers 7.12502
lthumb 9.00522 18.1533
rfemur -42.6588 -0.0353152 17.5279
rtibia 22.9078
rfoot -23.4071 -3.07996
rtoes -14.8209
lfemur -50.5116 -16.9329 -20.1948
ltibia 38.1013
lfoot -16.4572 -1.22734
ltoes -40.2895
346
root 12.0187 17.1968 10.2888 -149.983 2.30266 174.117
lowerback -11.2431 -0.72699 -2.47996
upperback 2.39148 -0.64364 0.38649
thorax 8.91594 -0.454323 1.69128
lowerneck -3.92351 -3.97602 -1.14922
upperneck 14.9833 -4.67356 -0.155903
head 5.17313 -2.13072 -0.101105
rclavicle 6.75868e-015 -7.95139e-015
rhumerus -24.328 16.1219 -75.5647
rradius 56.722
rwrist -15.316
rhand -2.11785 -57.0375
rfingers 7.12502
rthumb 23.5604 -445.614
lclavicle 6.75868e-015 -7.95139e-015
lhumerus -33.9439 -14.5961 64.8577
lradius 43.6527
lwrist 0.940906
lhand -17.466 -11.8313
lfingers 7.12502
lthumb 8.78566 17.9659
rfemur -41.8193 0.0884338 17.9217
rtibia 22.3655
rfoot -23.704 -2.62901
rtoes -13.1652
lfemur -50.0596 -16.7181 -20.4206
ltibia 37.2694
lfoot -16.1478 -1.52758
ltoes -38.5141
347
root 12.0475 17.2015 10.256 -150.097 2.27065 174.202
lowerback -11.6052 -0.461773 -2.73839
upperback 2.47697 -0.207473 0.0565961
thorax 9.19819 -0.250502 1.56668
lowerneck -4.75281 -4.14376 -0.611695
upperneck 15.119 -5.01498 0.0461459
head 5.3486 -2.26619 -0.165841
rclavicle -6.36111e-015 0
rhumerus -24.0629 14.7522 -76.1459
rradius 55.8419
rwrist -14.9042
rhand -2.74213 -56.6077
rfingers 7.12502
rthumb 22.9614 -445.26
lclavicle -6.36111e-015 0
lhumerus -33.243 -14.6333 64.4366
lradius 43.1533
lwrist 0.910457
lhand -17.1256 -11.4274
lfingers 7.12502
lthumb 9.11418 18.3557
rfemur -41.2564 0.0309257 18.2167
rtibia 21.8266
rfoot -23.9564 -2.27619
rtoes -11.6086
lfemur -49.9623 -16.5025 -20.7097
ltibia 36.6467
lfoot -15.8243 -2.30461
ltoes -35.0084
348
root 12.0774 17.2065 10.2269 -150.106 2.06141 174.396
lowerback -11.9876 -0.493038 -3.00807
upperback 2.23314 -0.198356 0.0626008
thorax 9.1559 -0.25705 1.7274
lowerneck -4.52607 -4.09789 -0.643988
upperneck 15.0085 -4.94559 0.042474
head 5.27618 -2.2336 -0.151333
rclavicle -3.97569e-015 7.15625e-015
rhumerus -24.5567 14.3592 -76.6168
rradius 55.4921
rwrist -14.5296
rhand -3.21772 -55.5828
rfingers 7.12502
rthumb 22.505 -444.291
lclavicle -3.97569e-015 7.15625e-015
lhumerus -33.5725 -14.1429 64.4384
lradius 42.7603
lwrist 0.880953
lhand -16.8845 -11.2368
lfingers 7.12502
lthumb 9.34683 18.536
rfemur -40.7934 0.196351 18.5331
rtibia 21.2864
rfoot -23.8926 -2.26209
rtoes -11.2942
lfemur -49.954 -16.3266 -20.7409
ltibia 35.9779
lfoot -15.221 -2.87112
ltoes -32.0461
